# xmcd CD database file
#
# Track frame offsets:
#	150
#	25409
#	60848
#	92729
#	121655
#	154758
#	194970
#	234541
#
# Disc length: 3640 seconds
#
# Revision: 0
# Processed by: cddbd v1.5.1PL2 Copyright (c) Steve Scherf et al.
# Submitted via: CDex 1.51
#
DISCID=620e3608
DTITLE=Jim Rotondi - Iron Man
DYEAR=2006
DGENRE=Jazz
TTITLE0=Iron Man
TTITLE1=Chouchou
TTITLE2=For My Nephews
TTITLE3=Embraceable You
TTITLE4=Digit
TTITLE5=Repetition
TTITLE6=Mr. Craignos
TTITLE7=Power
EXTD=YEAR: 2006
EXTT0=
EXTT1=
EXTT2=
EXTT3=
EXTT4=
EXTT5=
EXTT6=
EXTT7=
PLAYORDER=
